<mxfile host="app.diagrams.net" modified="2022-10-30T01:27:01.838Z" agent="5.0 (Windows NT 10.0; Win64; x64) AppleWebKit/537.36 (KHTML, like Gecko) Chrome/107.0.0.0 Safari/537.36" etag="PeV1lOBXxDxdV0VJqsgi" version="20.3.2" type="github">
  <diagram id="WLJFUuK-N6yG4z9ATifG" name="Página-1">
    <mxGraphModel dx="1038" dy="1571" grid="1" gridSize="10" guides="1" tooltips="1" connect="1" arrows="1" fold="1" page="1" pageScale="1" pageWidth="1000" pageHeight="1000" background="#E6E6E6" math="0" shadow="0">
      <root>
        <mxCell id="0" />
        <mxCell id="1" parent="0" />
        <mxCell id="DAyRLMKiSIq0naLMcyKu-8" style="edgeStyle=orthogonalEdgeStyle;rounded=0;orthogonalLoop=1;jettySize=auto;html=1;exitX=0.5;exitY=1;exitDx=0;exitDy=0;entryX=0.5;entryY=0;entryDx=0;entryDy=0;exitPerimeter=0;" edge="1" parent="1" source="DAyRLMKiSIq0naLMcyKu-40" target="DAyRLMKiSIq0naLMcyKu-7">
          <mxGeometry relative="1" as="geometry">
            <mxPoint x="434" y="70" as="sourcePoint" />
            <Array as="points">
              <mxPoint x="539" y="160" />
              <mxPoint x="339" y="160" />
            </Array>
          </mxGeometry>
        </mxCell>
        <mxCell id="DAyRLMKiSIq0naLMcyKu-9" style="edgeStyle=orthogonalEdgeStyle;rounded=0;orthogonalLoop=1;jettySize=auto;html=1;entryX=0.5;entryY=0;entryDx=0;entryDy=0;" edge="1" parent="1" target="DAyRLMKiSIq0naLMcyKu-6">
          <mxGeometry relative="1" as="geometry">
            <mxPoint x="539" y="80" as="sourcePoint" />
            <Array as="points">
              <mxPoint x="540" y="70" />
              <mxPoint x="540" y="160" />
              <mxPoint x="539" y="160" />
            </Array>
          </mxGeometry>
        </mxCell>
        <mxCell id="DAyRLMKiSIq0naLMcyKu-10" style="edgeStyle=orthogonalEdgeStyle;rounded=0;orthogonalLoop=1;jettySize=auto;html=1;entryX=0.5;entryY=0;entryDx=0;entryDy=0;" edge="1" parent="1" target="DAyRLMKiSIq0naLMcyKu-5">
          <mxGeometry relative="1" as="geometry">
            <mxPoint x="540" y="70" as="sourcePoint" />
            <Array as="points">
              <mxPoint x="540" y="70" />
              <mxPoint x="540" y="160" />
              <mxPoint x="729" y="160" />
            </Array>
          </mxGeometry>
        </mxCell>
        <mxCell id="DAyRLMKiSIq0naLMcyKu-11" style="edgeStyle=orthogonalEdgeStyle;rounded=0;orthogonalLoop=1;jettySize=auto;html=1;exitX=0.5;exitY=1;exitDx=0;exitDy=0;exitPerimeter=0;" edge="1" parent="1" source="DAyRLMKiSIq0naLMcyKu-40" target="DAyRLMKiSIq0naLMcyKu-2">
          <mxGeometry relative="1" as="geometry">
            <mxPoint x="434" y="70" as="sourcePoint" />
            <Array as="points">
              <mxPoint x="540" y="60" />
              <mxPoint x="540" y="160" />
              <mxPoint x="139" y="160" />
            </Array>
          </mxGeometry>
        </mxCell>
        <mxCell id="DAyRLMKiSIq0naLMcyKu-20" style="edgeStyle=orthogonalEdgeStyle;rounded=0;orthogonalLoop=1;jettySize=auto;html=1;exitX=0.5;exitY=1;exitDx=0;exitDy=0;entryX=0.5;entryY=0;entryDx=0;entryDy=0;" edge="1" parent="1" source="DAyRLMKiSIq0naLMcyKu-2" target="DAyRLMKiSIq0naLMcyKu-12">
          <mxGeometry relative="1" as="geometry" />
        </mxCell>
        <mxCell id="DAyRLMKiSIq0naLMcyKu-2" value="Rotina Configura Data e Horário Alarme" style="shape=process;whiteSpace=wrap;html=1;backgroundOutline=1;fillColor=#fff2cc;strokeColor=#d6b656;" vertex="1" parent="1">
          <mxGeometry x="79" y="380" width="120" height="60" as="geometry" />
        </mxCell>
        <mxCell id="DAyRLMKiSIq0naLMcyKu-23" style="edgeStyle=orthogonalEdgeStyle;rounded=0;orthogonalLoop=1;jettySize=auto;html=1;exitX=0.5;exitY=1;exitDx=0;exitDy=0;entryX=0.5;entryY=0;entryDx=0;entryDy=0;" edge="1" parent="1" source="DAyRLMKiSIq0naLMcyKu-5" target="DAyRLMKiSIq0naLMcyKu-36">
          <mxGeometry relative="1" as="geometry">
            <mxPoint x="729" y="530" as="targetPoint" />
          </mxGeometry>
        </mxCell>
        <mxCell id="DAyRLMKiSIq0naLMcyKu-5" value="Rotina Abre Repositório" style="shape=process;whiteSpace=wrap;html=1;backgroundOutline=1;fillColor=#fff2cc;strokeColor=#d6b656;" vertex="1" parent="1">
          <mxGeometry x="669" y="380" width="120" height="60" as="geometry" />
        </mxCell>
        <mxCell id="DAyRLMKiSIq0naLMcyKu-22" style="edgeStyle=orthogonalEdgeStyle;rounded=0;orthogonalLoop=1;jettySize=auto;html=1;exitX=0.5;exitY=1;exitDx=0;exitDy=0;entryX=0.5;entryY=0;entryDx=0;entryDy=0;" edge="1" parent="1" source="DAyRLMKiSIq0naLMcyKu-6" target="DAyRLMKiSIq0naLMcyKu-18">
          <mxGeometry relative="1" as="geometry" />
        </mxCell>
        <mxCell id="DAyRLMKiSIq0naLMcyKu-6" value="Rotina Configura Repositório" style="shape=process;whiteSpace=wrap;html=1;backgroundOutline=1;fillColor=#fff2cc;strokeColor=#d6b656;" vertex="1" parent="1">
          <mxGeometry x="479" y="380" width="120" height="60" as="geometry" />
        </mxCell>
        <mxCell id="DAyRLMKiSIq0naLMcyKu-21" style="edgeStyle=orthogonalEdgeStyle;rounded=0;orthogonalLoop=1;jettySize=auto;html=1;exitX=0.5;exitY=1;exitDx=0;exitDy=0;entryX=0.5;entryY=0;entryDx=0;entryDy=0;" edge="1" parent="1" source="DAyRLMKiSIq0naLMcyKu-7" target="DAyRLMKiSIq0naLMcyKu-17">
          <mxGeometry relative="1" as="geometry" />
        </mxCell>
        <mxCell id="DAyRLMKiSIq0naLMcyKu-7" value="Rotina Configura Som Alarme&amp;nbsp;" style="shape=process;whiteSpace=wrap;html=1;backgroundOutline=1;fillColor=#fff2cc;strokeColor=#d6b656;" vertex="1" parent="1">
          <mxGeometry x="279" y="380" width="120" height="60" as="geometry" />
        </mxCell>
        <mxCell id="DAyRLMKiSIq0naLMcyKu-48" style="edgeStyle=orthogonalEdgeStyle;rounded=0;orthogonalLoop=1;jettySize=auto;html=1;exitX=0.5;exitY=1;exitDx=0;exitDy=0;" edge="1" parent="1" source="DAyRLMKiSIq0naLMcyKu-12" target="DAyRLMKiSIq0naLMcyKu-37">
          <mxGeometry relative="1" as="geometry" />
        </mxCell>
        <mxCell id="DAyRLMKiSIq0naLMcyKu-12" value="Escreve na Memória" style="rounded=0;whiteSpace=wrap;html=1;fillColor=#dae8fc;strokeColor=#6c8ebf;" vertex="1" parent="1">
          <mxGeometry x="79" y="530" width="120" height="60" as="geometry" />
        </mxCell>
        <mxCell id="DAyRLMKiSIq0naLMcyKu-54" style="edgeStyle=orthogonalEdgeStyle;rounded=0;orthogonalLoop=1;jettySize=auto;html=1;exitX=0.5;exitY=1;exitDx=0;exitDy=0;entryX=0.5;entryY=0;entryDx=0;entryDy=0;entryPerimeter=0;" edge="1" parent="1" source="DAyRLMKiSIq0naLMcyKu-17" target="DAyRLMKiSIq0naLMcyKu-50">
          <mxGeometry relative="1" as="geometry" />
        </mxCell>
        <mxCell id="DAyRLMKiSIq0naLMcyKu-17" value="Escreve na Memória" style="rounded=0;whiteSpace=wrap;html=1;fillColor=#dae8fc;strokeColor=#6c8ebf;" vertex="1" parent="1">
          <mxGeometry x="279" y="530" width="120" height="60" as="geometry" />
        </mxCell>
        <mxCell id="DAyRLMKiSIq0naLMcyKu-55" style="edgeStyle=orthogonalEdgeStyle;rounded=0;orthogonalLoop=1;jettySize=auto;html=1;exitX=0.5;exitY=1;exitDx=0;exitDy=0;entryX=0.5;entryY=0;entryDx=0;entryDy=0;entryPerimeter=0;" edge="1" parent="1" source="DAyRLMKiSIq0naLMcyKu-18" target="DAyRLMKiSIq0naLMcyKu-49">
          <mxGeometry relative="1" as="geometry" />
        </mxCell>
        <mxCell id="DAyRLMKiSIq0naLMcyKu-18" value="Escreve na Memória" style="rounded=0;whiteSpace=wrap;html=1;fillColor=#dae8fc;strokeColor=#6c8ebf;" vertex="1" parent="1">
          <mxGeometry x="479" y="530" width="120" height="60" as="geometry" />
        </mxCell>
        <mxCell id="DAyRLMKiSIq0naLMcyKu-26" style="edgeStyle=orthogonalEdgeStyle;rounded=0;orthogonalLoop=1;jettySize=auto;html=1;entryX=0.25;entryY=0;entryDx=0;entryDy=0;" edge="1" parent="1" source="DAyRLMKiSIq0naLMcyKu-25" target="DAyRLMKiSIq0naLMcyKu-2">
          <mxGeometry relative="1" as="geometry" />
        </mxCell>
        <mxCell id="DAyRLMKiSIq0naLMcyKu-25" value="Data e Horário" style="shape=parallelogram;perimeter=parallelogramPerimeter;whiteSpace=wrap;html=1;fixedSize=1;fillColor=#f8cecc;strokeColor=#b85450;" vertex="1" parent="1">
          <mxGeometry x="10" y="250" width="120" height="60" as="geometry" />
        </mxCell>
        <mxCell id="DAyRLMKiSIq0naLMcyKu-32" style="edgeStyle=orthogonalEdgeStyle;rounded=0;orthogonalLoop=1;jettySize=auto;html=1;exitX=0.5;exitY=1;exitDx=0;exitDy=0;entryX=0.25;entryY=0;entryDx=0;entryDy=0;" edge="1" parent="1" source="DAyRLMKiSIq0naLMcyKu-27" target="DAyRLMKiSIq0naLMcyKu-7">
          <mxGeometry relative="1" as="geometry" />
        </mxCell>
        <mxCell id="DAyRLMKiSIq0naLMcyKu-27" value="Informa Alarme Selecionado" style="shape=parallelogram;perimeter=parallelogramPerimeter;whiteSpace=wrap;html=1;fixedSize=1;fillColor=#f8cecc;strokeColor=#b85450;" vertex="1" parent="1">
          <mxGeometry x="210" y="250" width="120" height="60" as="geometry" />
        </mxCell>
        <mxCell id="DAyRLMKiSIq0naLMcyKu-31" style="edgeStyle=orthogonalEdgeStyle;rounded=0;orthogonalLoop=1;jettySize=auto;html=1;entryX=0.25;entryY=0;entryDx=0;entryDy=0;" edge="1" parent="1" source="DAyRLMKiSIq0naLMcyKu-28" target="DAyRLMKiSIq0naLMcyKu-6">
          <mxGeometry relative="1" as="geometry">
            <mxPoint x="480" y="340" as="targetPoint" />
          </mxGeometry>
        </mxCell>
        <mxCell id="DAyRLMKiSIq0naLMcyKu-28" value="Informa &lt;br&gt;Repositório&lt;br&gt;Selecionado&amp;nbsp;" style="shape=parallelogram;perimeter=parallelogramPerimeter;whiteSpace=wrap;html=1;fixedSize=1;fillColor=#f8cecc;strokeColor=#b85450;" vertex="1" parent="1">
          <mxGeometry x="410" y="250" width="120" height="60" as="geometry" />
        </mxCell>
        <mxCell id="DAyRLMKiSIq0naLMcyKu-35" style="edgeStyle=orthogonalEdgeStyle;rounded=0;orthogonalLoop=1;jettySize=auto;html=1;entryX=0.25;entryY=0;entryDx=0;entryDy=0;" edge="1" parent="1" source="DAyRLMKiSIq0naLMcyKu-33" target="DAyRLMKiSIq0naLMcyKu-5">
          <mxGeometry relative="1" as="geometry" />
        </mxCell>
        <mxCell id="DAyRLMKiSIq0naLMcyKu-33" value="Informa &lt;br&gt;Repositório&lt;br&gt;Selecionado&amp;nbsp;" style="shape=parallelogram;perimeter=parallelogramPerimeter;whiteSpace=wrap;html=1;fixedSize=1;fillColor=#f8cecc;strokeColor=#b85450;" vertex="1" parent="1">
          <mxGeometry x="599" y="250" width="120" height="60" as="geometry" />
        </mxCell>
        <mxCell id="DAyRLMKiSIq0naLMcyKu-43" style="edgeStyle=orthogonalEdgeStyle;rounded=0;orthogonalLoop=1;jettySize=auto;html=1;exitX=0.5;exitY=1;exitDx=0;exitDy=0;entryX=0.5;entryY=0;entryDx=0;entryDy=0;entryPerimeter=0;" edge="1" parent="1" source="DAyRLMKiSIq0naLMcyKu-36" target="DAyRLMKiSIq0naLMcyKu-42">
          <mxGeometry relative="1" as="geometry" />
        </mxCell>
        <mxCell id="DAyRLMKiSIq0naLMcyKu-36" value="Abre repositório" style="shape=parallelogram;perimeter=parallelogramPerimeter;whiteSpace=wrap;html=1;fixedSize=1;fillColor=#f8cecc;strokeColor=#b85450;" vertex="1" parent="1">
          <mxGeometry x="669" y="530" width="120" height="60" as="geometry" />
        </mxCell>
        <mxCell id="DAyRLMKiSIq0naLMcyKu-37" value="Encerra Interrupção" style="strokeWidth=2;html=1;shape=mxgraph.flowchart.terminator;whiteSpace=wrap;fillColor=#e1d5e7;strokeColor=#9673a6;" vertex="1" parent="1">
          <mxGeometry x="89" y="720" width="100" height="60" as="geometry" />
        </mxCell>
        <mxCell id="DAyRLMKiSIq0naLMcyKu-65" style="edgeStyle=orthogonalEdgeStyle;rounded=0;orthogonalLoop=1;jettySize=auto;html=1;exitX=0.5;exitY=1;exitDx=0;exitDy=0;exitPerimeter=0;entryX=0.603;entryY=0.023;entryDx=0;entryDy=0;entryPerimeter=0;" edge="1" parent="1" source="DAyRLMKiSIq0naLMcyKu-40" target="DAyRLMKiSIq0naLMcyKu-59">
          <mxGeometry relative="1" as="geometry">
            <Array as="points">
              <mxPoint x="540" y="60" />
              <mxPoint x="540" y="160" />
              <mxPoint x="920" y="160" />
            </Array>
          </mxGeometry>
        </mxCell>
        <mxCell id="DAyRLMKiSIq0naLMcyKu-40" value="Controlador Interrupções" style="strokeWidth=2;html=1;shape=mxgraph.flowchart.terminator;whiteSpace=wrap;fillColor=#e1d5e7;strokeColor=#9673a6;" vertex="1" parent="1">
          <mxGeometry x="489" width="100" height="60" as="geometry" />
        </mxCell>
        <mxCell id="DAyRLMKiSIq0naLMcyKu-45" style="edgeStyle=orthogonalEdgeStyle;rounded=0;orthogonalLoop=1;jettySize=auto;html=1;exitX=0;exitY=0.5;exitDx=0;exitDy=0;exitPerimeter=0;entryX=0.5;entryY=0;entryDx=0;entryDy=0;entryPerimeter=0;" edge="1" parent="1" source="DAyRLMKiSIq0naLMcyKu-42" target="DAyRLMKiSIq0naLMcyKu-42">
          <mxGeometry relative="1" as="geometry">
            <mxPoint x="729" y="670" as="targetPoint" />
            <Array as="points">
              <mxPoint x="640" y="730" />
              <mxPoint x="640" y="660" />
              <mxPoint x="729" y="660" />
            </Array>
          </mxGeometry>
        </mxCell>
        <mxCell id="DAyRLMKiSIq0naLMcyKu-47" style="edgeStyle=orthogonalEdgeStyle;rounded=0;orthogonalLoop=1;jettySize=auto;html=1;exitX=0.5;exitY=1;exitDx=0;exitDy=0;exitPerimeter=0;entryX=0.5;entryY=0;entryDx=0;entryDy=0;entryPerimeter=0;" edge="1" parent="1" source="DAyRLMKiSIq0naLMcyKu-42" target="DAyRLMKiSIq0naLMcyKu-51">
          <mxGeometry relative="1" as="geometry">
            <mxPoint x="729" y="860" as="targetPoint" />
          </mxGeometry>
        </mxCell>
        <mxCell id="DAyRLMKiSIq0naLMcyKu-42" value="Fechou&lt;br&gt;Repositório" style="strokeWidth=2;html=1;shape=mxgraph.flowchart.decision;whiteSpace=wrap;fillColor=#d5e8d4;strokeColor=#82b366;" vertex="1" parent="1">
          <mxGeometry x="679" y="680" width="100" height="100" as="geometry" />
        </mxCell>
        <mxCell id="DAyRLMKiSIq0naLMcyKu-46" value="Não" style="text;html=1;strokeColor=none;fillColor=none;align=center;verticalAlign=middle;whiteSpace=wrap;rounded=0;" vertex="1" parent="1">
          <mxGeometry x="629" y="680" width="60" height="30" as="geometry" />
        </mxCell>
        <mxCell id="DAyRLMKiSIq0naLMcyKu-49" value="Encerra Interrupção" style="strokeWidth=2;html=1;shape=mxgraph.flowchart.terminator;whiteSpace=wrap;fillColor=#e1d5e7;strokeColor=#9673a6;" vertex="1" parent="1">
          <mxGeometry x="489" y="720" width="100" height="60" as="geometry" />
        </mxCell>
        <mxCell id="DAyRLMKiSIq0naLMcyKu-50" value="Encerra Interrupção" style="strokeWidth=2;html=1;shape=mxgraph.flowchart.terminator;whiteSpace=wrap;fillColor=#e1d5e7;strokeColor=#9673a6;" vertex="1" parent="1">
          <mxGeometry x="289" y="720" width="100" height="60" as="geometry" />
        </mxCell>
        <mxCell id="DAyRLMKiSIq0naLMcyKu-51" value="Encerra Interrupção" style="strokeWidth=2;html=1;shape=mxgraph.flowchart.terminator;whiteSpace=wrap;fillColor=#e1d5e7;strokeColor=#9673a6;" vertex="1" parent="1">
          <mxGeometry x="679" y="870" width="100" height="60" as="geometry" />
        </mxCell>
        <mxCell id="DAyRLMKiSIq0naLMcyKu-57" value="Sim" style="text;html=1;strokeColor=none;fillColor=none;align=center;verticalAlign=middle;whiteSpace=wrap;rounded=0;" vertex="1" parent="1">
          <mxGeometry x="669" y="800" width="60" height="30" as="geometry" />
        </mxCell>
        <mxCell id="DAyRLMKiSIq0naLMcyKu-58" style="edgeStyle=orthogonalEdgeStyle;rounded=0;orthogonalLoop=1;jettySize=auto;html=1;exitX=0.5;exitY=1;exitDx=0;exitDy=0;entryX=0.5;entryY=0;entryDx=0;entryDy=0;" edge="1" parent="1" source="DAyRLMKiSIq0naLMcyKu-59" target="DAyRLMKiSIq0naLMcyKu-61">
          <mxGeometry relative="1" as="geometry" />
        </mxCell>
        <mxCell id="DAyRLMKiSIq0naLMcyKu-59" value="Rotina Configura Data e Horário" style="shape=process;whiteSpace=wrap;html=1;backgroundOutline=1;fillColor=#fff2cc;strokeColor=#d6b656;" vertex="1" parent="1">
          <mxGeometry x="848" y="380" width="120" height="60" as="geometry" />
        </mxCell>
        <mxCell id="DAyRLMKiSIq0naLMcyKu-60" style="edgeStyle=orthogonalEdgeStyle;rounded=0;orthogonalLoop=1;jettySize=auto;html=1;exitX=0.5;exitY=1;exitDx=0;exitDy=0;" edge="1" parent="1" source="DAyRLMKiSIq0naLMcyKu-61" target="DAyRLMKiSIq0naLMcyKu-64">
          <mxGeometry relative="1" as="geometry" />
        </mxCell>
        <mxCell id="DAyRLMKiSIq0naLMcyKu-61" value="Escreve na Memória" style="rounded=0;whiteSpace=wrap;html=1;fillColor=#dae8fc;strokeColor=#6c8ebf;" vertex="1" parent="1">
          <mxGeometry x="848" y="530" width="120" height="60" as="geometry" />
        </mxCell>
        <mxCell id="DAyRLMKiSIq0naLMcyKu-62" style="edgeStyle=orthogonalEdgeStyle;rounded=0;orthogonalLoop=1;jettySize=auto;html=1;entryX=0.25;entryY=0;entryDx=0;entryDy=0;" edge="1" parent="1" source="DAyRLMKiSIq0naLMcyKu-63" target="DAyRLMKiSIq0naLMcyKu-59">
          <mxGeometry relative="1" as="geometry" />
        </mxCell>
        <mxCell id="DAyRLMKiSIq0naLMcyKu-63" value="Data e Horário" style="shape=parallelogram;perimeter=parallelogramPerimeter;whiteSpace=wrap;html=1;fixedSize=1;fillColor=#f8cecc;strokeColor=#b85450;" vertex="1" parent="1">
          <mxGeometry x="779" y="250" width="120" height="60" as="geometry" />
        </mxCell>
        <mxCell id="DAyRLMKiSIq0naLMcyKu-64" value="Encerra Interrupção" style="strokeWidth=2;html=1;shape=mxgraph.flowchart.terminator;whiteSpace=wrap;fillColor=#e1d5e7;strokeColor=#9673a6;" vertex="1" parent="1">
          <mxGeometry x="858" y="720" width="100" height="60" as="geometry" />
        </mxCell>
      </root>
    </mxGraphModel>
  </diagram>
</mxfile>
